# xmcd CD database file
#
# Track frame offsets:
#	150
#	65375
#	130847
#
# Disc length: 2685 seconds
#
# Revision: 0
# Processed by: cddbd v1.5.1PL0 Copyright (c) Steve Scherf et al.
# Submitted via: CDex 1.50
#
DISCID=220a7b03
DTITLE=Miles Davis Quintet - Danish Radio Broadcast
DYEAR=2004
DGENRE=Jazz
TTITLE0=So What
TTITLE1=On Green Dolphin Street
TTITLE2=All Blues
EXTD=YEAR: 2004
EXTT0=
EXTT1=
EXTT2=
PLAYORDER=
